<svg width="54" height="54" viewBox="0 0 54 54" fill="none" xmlns="http://www.w3.org/2000/svg">
<rect width="54" height="54" rx="6.96774" fill="white" fill-opacity="0.1"/>
<path d="M20.0453 38.2787V36.7433H27.4607C29.0722 36.7433 30.3571 36.3078 31.3153 35.4367C32.2953 34.5438 32.7853 33.4004 32.7853 32.0067C32.7853 31.092 32.5676 30.2862 32.132 29.5893C31.7182 28.8707 31.1302 28.3153 30.368 27.9233C29.6276 27.5096 28.7564 27.3027 27.7547 27.3027H20.0453V25.8327H27.4933C28.8 25.8327 29.8344 25.4624 30.5967 24.722C31.3807 23.9816 31.7727 22.9689 31.7727 21.684C31.7727 20.3773 31.348 19.3647 30.4987 18.646C29.6493 17.9056 28.5169 17.5353 27.1013 17.5353H20.0453V16H27.1013C28.4516 16 29.5949 16.2396 30.5313 16.7187C31.4896 17.176 32.2191 17.8184 32.72 18.646C33.2427 19.4736 33.504 20.4427 33.504 21.5533C33.504 22.8164 33.1664 23.9053 32.4913 24.82C31.838 25.7347 30.8907 26.3989 29.6493 26.8127L29.8453 26.2247C31.3044 26.6384 32.4478 27.368 33.2753 28.4133C34.1247 29.4369 34.5493 30.6673 34.5493 32.1047C34.5493 33.3024 34.2553 34.3696 33.6673 35.306C33.0793 36.2424 32.2409 36.972 31.152 37.4947C30.0849 38.0173 28.8 38.2787 27.2973 38.2787H20.0453ZM19 38.2787V16H20.7313V38.2787H19Z" fill="white"/>
</svg>
