<svg width="13" height="14" viewBox="0 0 13 14" fill="none" xmlns="http://www.w3.org/2000/svg">
<g clip-path="url(#clip0_177_4919)">
<path d="M9.59702 5.99308C9.75259 5.99308 9.89961 5.92108 9.99477 5.79823C10.0899 5.67538 10.1232 5.51527 10.0849 5.36473C9.92831 4.75199 9.6091 4.19212 9.16201 3.74503L7.40737 1.99039C6.74177 1.32479 5.85665 0.958252 4.91513 0.958252H2.64191C1.25431 0.958252 0.125 2.08756 0.125 3.47566V10.5244C0.125 11.9125 1.25431 13.0418 2.64241 13.0418H4.15286C4.43078 13.0418 4.65634 12.8163 4.65634 12.5383C4.65634 12.2604 4.43078 12.0349 4.15286 12.0349H2.64241C1.80965 12.0349 1.13197 11.3572 1.13197 10.5244V3.47566C1.13197 2.6429 1.80965 1.96522 2.64241 1.96522H4.91564C4.9977 1.96522 5.07927 1.96924 5.15983 1.9768V4.48263C5.15983 5.31539 5.83751 5.99308 6.67027 5.99308H9.59702ZM6.16679 4.48263V2.29701C6.35761 2.40677 6.53534 2.54271 6.69545 2.70282L8.45008 4.45745C8.60818 4.61555 8.74361 4.79378 8.85438 4.98611H6.67027C6.39285 4.98611 6.16679 4.76005 6.16679 4.48263ZM11.7665 6.93912C11.1956 6.36817 10.2007 6.36817 9.63025 6.93912L6.25339 10.316C5.87326 10.6961 5.66331 11.2021 5.66331 11.7403V12.5389C5.66331 12.8168 5.88887 13.0423 6.16679 13.0423H6.96531C7.50354 13.0423 8.00903 12.8324 8.38916 12.4523L11.766 9.07539C12.0515 8.78992 12.2086 8.4108 12.2086 8.00701C12.2086 7.60321 12.0515 7.22409 11.7665 6.93912ZM11.0541 8.36297L7.67673 11.7398C7.48692 11.9301 7.23417 12.0349 6.96481 12.0349H6.66977V11.7398C6.66977 11.471 6.77449 11.2182 6.96481 11.0279L10.3422 7.65104C10.532 7.46073 10.8638 7.46073 11.0541 7.65104C11.1493 7.7457 11.2016 7.87207 11.2016 8.00701C11.2016 8.14194 11.1493 8.26781 11.0541 8.36297Z" fill="white"/>
</g>
<defs>
<clipPath id="clip0_177_4919">
<rect width="12.0836" height="12.0836" fill="white" transform="translate(0.125 0.958252)"/>
</clipPath>
</defs>
</svg>
