<svg width="38" height="38" viewBox="0 0 38 38" fill="none" xmlns="http://www.w3.org/2000/svg">
<rect x="0.5" y="0.5" width="37" height="37" rx="11.5" fill="url(#paint0_linear_240_205)" fill-opacity="0.3"/>
<rect x="0.5" y="0.5" width="37" height="37" rx="11.5" stroke="url(#paint1_linear_240_205)"/>
<g clip-path="url(#clip0_240_205)">
<path d="M24.1097 17.5C24.3415 17.5 24.5605 17.3927 24.7023 17.2097C24.844 17.0267 24.8935 16.7882 24.8365 16.564C24.6032 15.6512 24.1277 14.8172 23.4618 14.1512L20.848 11.5375C19.8565 10.546 18.538 10 17.1355 10H13.7492C11.6823 10 10 11.6822 10 13.75V24.25C10 26.3177 11.6823 28 13.75 28H16C16.414 28 16.75 27.664 16.75 27.25C16.75 26.836 16.414 26.5 16 26.5H13.75C12.5095 26.5 11.5 25.4905 11.5 24.25V13.75C11.5 12.5095 12.5095 11.5 13.75 11.5H17.1363C17.2585 11.5 17.38 11.506 17.5 11.5172V15.25C17.5 16.4905 18.5095 17.5 19.75 17.5H24.1097ZM19 15.25V11.9942C19.2843 12.1577 19.549 12.3602 19.7875 12.5987L22.4012 15.2125C22.6368 15.448 22.8385 15.7135 23.0035 16H19.75C19.3368 16 19 15.6632 19 15.25ZM27.3415 18.9092C26.491 18.0587 25.009 18.0587 24.1593 18.9092L19.129 23.9395C18.5627 24.5057 18.25 25.2595 18.25 26.0612V27.2507C18.25 27.6647 18.586 28.0007 19 28.0007H20.1895C20.9913 28.0007 21.7442 27.688 22.3105 27.1217L27.3407 22.0915C27.766 21.6662 28 21.1015 28 20.5C28 19.8985 27.766 19.3337 27.3415 18.9092ZM26.2803 21.0302L21.2492 26.0605C20.9665 26.344 20.59 26.5 20.1888 26.5H19.7492V26.0605C19.7492 25.66 19.9052 25.2835 20.1888 25L25.2197 19.9697C25.5025 19.6862 25.9968 19.6862 26.2803 19.9697C26.422 20.1107 26.5 20.299 26.5 20.5C26.5 20.701 26.422 20.8885 26.2803 21.0302Z" fill="white"/>
</g>
<defs>
<linearGradient id="paint0_linear_240_205" x1="5.90357" y1="0.542856" x2="44.9463" y2="19.5465" gradientUnits="userSpaceOnUse">
<stop stop-color="#EFEFEF" stop-opacity="0.6"/>
<stop offset="1" stop-color="white" stop-opacity="0.08"/>
</linearGradient>
<linearGradient id="paint1_linear_240_205" x1="1.9" y1="3.09429" x2="42.2779" y2="18.135" gradientUnits="userSpaceOnUse">
<stop stop-color="white" stop-opacity="0.6"/>
<stop offset="1" stop-color="white" stop-opacity="0.1"/>
</linearGradient>
<clipPath id="clip0_240_205">
<rect width="18" height="18" fill="white" transform="translate(10 10)"/>
</clipPath>
</defs>
</svg>
