<svg width="55" height="22" viewBox="0 0 55 22" fill="none" xmlns="http://www.w3.org/2000/svg">
<g clip-path="url(#clip0_199_5662)">
<path d="M10.9995 0.5L4.55078 11.1925L10.9995 15.0022L17.4483 11.1925L10.9995 0.5ZM10.9995 21.5L4.55078 12.4149L10.9995 16.25L17.4483 12.4149L10.9995 21.5Z" fill="white"/>
</g>
<path d="M25.1558 17V5.896H26.6598V17H25.1558ZM26.1798 17V15.624H32.5478V17H26.1798ZM26.1798 11.976V10.664H32.0198V11.976H26.1798ZM26.1798 7.272V5.896H32.4678V7.272H26.1798ZM37.1154 17V6.216H38.6194V17H37.1154ZM33.3394 7.272V5.896H42.3794V7.272H33.3394ZM44.1714 17V5.896H45.6754V17H44.1714ZM51.3394 17V5.896H52.8434V17H51.3394ZM45.1954 11.944V10.568H51.7074V11.944H45.1954Z" fill="white"/>
<defs>
<clipPath id="clip0_199_5662">
<rect width="21" height="21" fill="white" transform="translate(0.5 0.5)"/>
</clipPath>
</defs>
</svg>
