<svg width="55" height="22" viewBox="0 0 55 22" fill="none" xmlns="http://www.w3.org/2000/svg">
<g clip-path="url(#clip0_199_5641)">
<path d="M6.42178 9.32462L10.5006 5.2462L14.5807 9.32626L16.954 6.95337L10.5006 0.5L4.04889 6.95132L6.42178 9.32421M0 11.0006L2.3733 8.6269L4.7462 11.0006L2.37289 13.3727L0 11.0006ZM6.42178 12.6762L10.5006 16.7542L14.5807 12.6742L16.9552 15.0458L10.5006 21.5012L4.04889 15.0491L4.04561 15.0454L6.42178 12.6758M16.2542 11.0006L18.6271 8.62772L21.0012 11.0006L18.6283 13.3735L16.2542 11.0006Z" fill="#F3BA2F"/>
<path d="M12.9067 11.0006L10.5006 8.59082L8.72045 10.3702L8.51536 10.5753L8.0941 10.9965L8.09082 10.9998L8.0941 11.0031L10.5006 13.4092L12.9084 11.0014H12.9063" fill="#F3BA2F"/>
</g>
<path d="M25.6716 17V15.688H29.0316C29.6716 15.688 30.1729 15.5013 30.5356 15.128C30.8982 14.744 31.0796 14.2853 31.0796 13.752C31.0796 13.3893 30.9996 13.064 30.8396 12.776C30.6796 12.4773 30.4449 12.2427 30.1356 12.072C29.8369 11.9013 29.4849 11.816 29.0796 11.816H25.6716V10.504H28.8556C29.3889 10.504 29.8102 10.3653 30.1196 10.088C30.4396 9.8 30.5996 9.38933 30.5996 8.856C30.5996 8.32267 30.4342 7.91733 30.1036 7.64C29.7729 7.352 29.3356 7.208 28.7916 7.208H25.6716V5.896H28.8236C29.5489 5.896 30.1516 6.02933 30.6316 6.296C31.1222 6.552 31.4902 6.89333 31.7356 7.32C31.9916 7.74667 32.1196 8.216 32.1196 8.728C32.1196 9.32533 31.9542 9.848 31.6236 10.296C31.3036 10.744 30.8289 11.096 30.1996 11.352L30.3276 10.872C31.0422 11.128 31.5969 11.5173 31.9916 12.04C32.3969 12.552 32.5996 13.16 32.5996 13.864C32.5996 14.4507 32.4556 14.9787 32.1676 15.448C31.8796 15.9173 31.4636 16.296 30.9196 16.584C30.3862 16.8613 29.7302 17 28.9516 17H25.6716ZM24.6636 17V5.896H26.1676V17H24.6636ZM34.6323 17V5.896H35.6883L36.1363 7.64V17H34.6323ZM42.3123 17L35.4963 7.896L35.6883 5.896L42.5203 14.984L42.3123 17ZM42.3123 17L41.8643 15.352V5.896H43.3683V17H42.3123ZM46.9997 17V15.688H50.3597C50.9997 15.688 51.501 15.5013 51.8637 15.128C52.2264 14.744 52.4077 14.2853 52.4077 13.752C52.4077 13.3893 52.3277 13.064 52.1677 12.776C52.0077 12.4773 51.773 12.2427 51.4637 12.072C51.165 11.9013 50.813 11.816 50.4077 11.816H46.9997V10.504H50.1837C50.717 10.504 51.1384 10.3653 51.4477 10.088C51.7677 9.8 51.9277 9.38933 51.9277 8.856C51.9277 8.32267 51.7624 7.91733 51.4317 7.64C51.101 7.352 50.6637 7.208 50.1197 7.208H46.9997V5.896H50.1517C50.877 5.896 51.4797 6.02933 51.9597 6.296C52.4504 6.552 52.8184 6.89333 53.0637 7.32C53.3197 7.74667 53.4477 8.216 53.4477 8.728C53.4477 9.32533 53.2824 9.848 52.9517 10.296C52.6317 10.744 52.157 11.096 51.5277 11.352L51.6557 10.872C52.3704 11.128 52.925 11.5173 53.3197 12.04C53.725 12.552 53.9277 13.16 53.9277 13.864C53.9277 14.4507 53.7837 14.9787 53.4957 15.448C53.2077 15.9173 52.7917 16.296 52.2477 16.584C51.7144 16.8613 51.0584 17 50.2797 17H46.9997ZM45.9917 17V5.896H47.4957V17H45.9917Z" fill="white"/>
<defs>
<clipPath id="clip0_199_5641">
<rect width="21" height="21" fill="white" transform="translate(0 0.5)"/>
</clipPath>
</defs>
</svg>
