<svg width="99" height="22" viewBox="0 0 99 22" fill="none" xmlns="http://www.w3.org/2000/svg">
<path d="M16.1042 7.67608C15.7396 7.4731 15.2708 7.4731 14.8542 7.67608L11.9375 9.35071L9.95833 10.4164L7.09375 12.091C6.72917 12.294 6.26042 12.294 5.84375 12.091L3.60417 10.7716C3.23958 10.5686 2.97917 10.1627 2.97917 9.70594V7.16862C2.97917 6.76265 3.1875 6.35668 3.60417 6.10295L5.84375 4.83429C6.20833 4.63131 6.67708 4.63131 7.09375 4.83429L9.33333 6.1537C9.69792 6.35668 9.95833 6.76265 9.95833 7.21937V8.894L11.9375 7.77758V6.0522C11.9375 5.64623 11.7292 5.24026 11.3125 4.98653L7.14583 2.60146C6.78125 2.39847 6.3125 2.39847 5.89583 2.60146L1.625 5.03728C1.20833 5.24026 1 5.64623 1 6.0522V10.8224C1 11.2283 1.20833 11.6343 1.625 11.888L5.84375 14.2731C6.20833 14.4761 6.67708 14.4761 7.09375 14.2731L9.95833 12.6492L11.9375 11.5328L14.8021 9.90892C15.1667 9.70594 15.6354 9.70594 16.0521 9.90892L18.2917 11.1776C18.6562 11.3806 18.9167 11.7865 18.9167 12.2432V14.7806C18.9167 15.1865 18.7083 15.5925 18.2917 15.8462L16.1042 17.1149C15.7396 17.3179 15.2708 17.3179 14.8542 17.1149L12.6146 15.8462C12.25 15.6432 11.9896 15.2373 11.9896 14.7806V13.1567L10.0104 14.2731V15.9477C10.0104 16.3537 10.2188 16.7597 10.6354 17.0134L14.8542 19.3985C15.2188 19.6015 15.6875 19.6015 16.1042 19.3985L20.3229 17.0134C20.6875 16.8104 20.9479 16.4044 20.9479 15.9477V11.1268C20.9479 10.7209 20.7396 10.3149 20.3229 10.0612L16.1042 7.67608Z" fill="#8247E5"/>
<path d="M25.4216 12.68V11.368H28.4456C28.8616 11.368 29.2296 11.2827 29.5496 11.112C29.8802 10.9413 30.1362 10.7013 30.3176 10.392C30.5096 10.0827 30.6056 9.71467 30.6056 9.288C30.6056 8.86133 30.5096 8.49333 30.3176 8.184C30.1362 7.87467 29.8802 7.63467 29.5496 7.464C29.2296 7.29333 28.8616 7.208 28.4456 7.208H25.4216V5.896H28.5416C29.2242 5.896 29.8322 6.03467 30.3656 6.312C30.9096 6.58933 31.3362 6.984 31.6456 7.496C31.9656 7.99733 32.1256 8.59467 32.1256 9.288C32.1256 9.97067 31.9656 10.568 31.6456 11.08C31.3362 11.5813 30.9096 11.976 30.3656 12.264C29.8322 12.5413 29.2242 12.68 28.5416 12.68H25.4216ZM24.4136 17V5.896H25.9176V17H24.4136ZM39.1727 17.16C38.3834 17.16 37.6474 17.016 36.9647 16.728C36.282 16.4293 35.6847 16.0187 35.1727 15.496C34.6607 14.9627 34.2607 14.3493 33.9727 13.656C33.6954 12.9627 33.5567 12.2213 33.5567 11.432C33.5567 10.632 33.6954 9.89067 33.9727 9.208C34.2607 8.51467 34.6554 7.90667 35.1567 7.384C35.6687 6.86133 36.2607 6.456 36.9327 6.168C37.6154 5.88 38.3514 5.736 39.1407 5.736C39.93 5.736 40.6607 5.88 41.3327 6.168C42.0154 6.456 42.6127 6.86133 43.1247 7.384C43.6367 7.90667 44.0367 8.51467 44.3247 9.208C44.6127 9.90133 44.7567 10.648 44.7567 11.448C44.7567 12.2373 44.6127 12.9787 44.3247 13.672C44.0367 14.3653 43.6367 14.9733 43.1247 15.496C42.6234 16.0187 42.0314 16.4293 41.3487 16.728C40.6767 17.016 39.9514 17.16 39.1727 17.16ZM39.1407 15.72C39.9407 15.72 40.6394 15.5387 41.2367 15.176C41.8447 14.8027 42.3247 14.296 42.6767 13.656C43.0287 13.0053 43.2047 12.264 43.2047 11.432C43.2047 10.8133 43.1034 10.248 42.9007 9.736C42.698 9.21333 42.4154 8.76 42.0527 8.376C41.69 7.992 41.2634 7.69867 40.7727 7.496C40.282 7.28267 39.738 7.176 39.1407 7.176C38.3514 7.176 37.6527 7.35733 37.0447 7.72C36.4474 8.08267 35.9727 8.584 35.6207 9.224C35.2794 9.864 35.1087 10.6 35.1087 11.432C35.1087 12.0507 35.2047 12.6267 35.3967 13.16C35.5994 13.6827 35.8767 14.136 36.2287 14.52C36.5914 14.8933 37.018 15.1867 37.5087 15.4C38.01 15.6133 38.554 15.72 39.1407 15.72ZM46.8198 17V5.896H48.3238V17H46.8198ZM47.8438 17V15.624H53.7958V17H47.8438ZM57.5429 12.488L53.1749 5.896H54.9189L58.4389 11.288H57.6549L61.1909 5.896H62.9029L58.5029 12.488H57.5429ZM57.2869 17V11.496H58.7909V17H57.2869ZM68.7032 17.16C67.9245 17.16 67.1939 17.016 66.5112 16.728C65.8392 16.4293 65.2472 16.0187 64.7352 15.496C64.2339 14.9733 63.8392 14.3653 63.5512 13.672C63.2632 12.9787 63.1192 12.232 63.1192 11.432C63.1192 10.632 63.2632 9.89067 63.5512 9.208C63.8392 8.51467 64.2392 7.90667 64.7512 7.384C65.2632 6.86133 65.8605 6.456 66.5432 6.168C67.2365 5.88 67.9885 5.736 68.7992 5.736C69.6845 5.736 70.5005 5.90667 71.2472 6.248C71.9939 6.58933 72.6179 7.08 73.1192 7.72L72.0792 8.76C71.7272 8.248 71.2632 7.85867 70.6872 7.592C70.1112 7.31467 69.4819 7.176 68.7992 7.176C67.9885 7.176 67.2685 7.35733 66.6392 7.72C66.0205 8.08267 65.5352 8.584 65.1832 9.224C64.8419 9.864 64.6712 10.6 64.6712 11.432C64.6712 12.2747 64.8472 13.016 65.1992 13.656C65.5512 14.296 66.0259 14.7973 66.6232 15.16C67.2205 15.5227 67.9032 15.704 68.6712 15.704C69.4499 15.704 70.1219 15.5547 70.6872 15.256C71.2632 14.9573 71.7059 14.52 72.0152 13.944C72.3245 13.3573 72.4792 12.6427 72.4792 11.8L73.3912 12.456H68.5912V11.08H74.0312V11.304C74.0312 12.5947 73.8019 13.6773 73.3432 14.552C72.8952 15.416 72.2659 16.0667 71.4552 16.504C70.6552 16.9413 69.7379 17.16 68.7032 17.16ZM81.2039 17.16C80.4146 17.16 79.6786 17.016 78.9959 16.728C78.3133 16.4293 77.7159 16.0187 77.2039 15.496C76.6919 14.9627 76.2919 14.3493 76.0039 13.656C75.7266 12.9627 75.5879 12.2213 75.5879 11.432C75.5879 10.632 75.7266 9.89067 76.0039 9.208C76.2919 8.51467 76.6866 7.90667 77.1879 7.384C77.6999 6.86133 78.2919 6.456 78.9639 6.168C79.6466 5.88 80.3826 5.736 81.1719 5.736C81.9613 5.736 82.6919 5.88 83.3639 6.168C84.0466 6.456 84.6439 6.86133 85.1559 7.384C85.6679 7.90667 86.0679 8.51467 86.3559 9.208C86.6439 9.90133 86.7879 10.648 86.7879 11.448C86.7879 12.2373 86.6439 12.9787 86.3559 13.672C86.0679 14.3653 85.6679 14.9733 85.1559 15.496C84.6546 16.0187 84.0626 16.4293 83.3799 16.728C82.7079 17.016 81.9826 17.16 81.2039 17.16ZM81.1719 15.72C81.9719 15.72 82.6706 15.5387 83.2679 15.176C83.8759 14.8027 84.3559 14.296 84.7079 13.656C85.0599 13.0053 85.2359 12.264 85.2359 11.432C85.2359 10.8133 85.1346 10.248 84.9319 9.736C84.7293 9.21333 84.4466 8.76 84.0839 8.376C83.7213 7.992 83.2946 7.69867 82.8039 7.496C82.3133 7.28267 81.7693 7.176 81.1719 7.176C80.3826 7.176 79.6839 7.35733 79.0759 7.72C78.4786 8.08267 78.0039 8.584 77.6519 9.224C77.3106 9.864 77.1399 10.6 77.1399 11.432C77.1399 12.0507 77.2359 12.6267 77.4279 13.16C77.6306 13.6827 77.9079 14.136 78.2599 14.52C78.6226 14.8933 79.0493 15.1867 79.5399 15.4C80.0413 15.6133 80.5853 15.72 81.1719 15.72ZM88.8511 17V5.896H89.9071L90.3551 7.64V17H88.8511ZM96.5311 17L89.7151 7.896L89.9071 5.896L96.7391 14.984L96.5311 17ZM96.5311 17L96.0831 15.352V5.896H97.5871V17H96.5311Z" fill="white"/>
</svg>
