<svg width="54" height="22" viewBox="0 0 54 22" fill="none" xmlns="http://www.w3.org/2000/svg">
<path d="M17.4102 7.05055C17.357 7.10623 17.2936 7.15047 17.2237 7.1807C17.1538 7.21094 17.0788 7.22657 17.003 7.22669H2.57702C2.06708 7.22669 1.80878 6.5862 2.16527 6.20583L4.53154 3.68077C4.58483 3.62372 4.64873 3.57832 4.71943 3.54726C4.79012 3.5162 4.86617 3.50013 4.94302 3.5H19.423C19.936 3.5 20.193 4.14716 19.8302 4.52567L17.4102 7.05055ZM17.4102 18.3284C17.3016 18.4385 17.1553 18.5001 17.003 18.5H2.57702C2.06708 18.5 1.80878 17.8755 2.16527 17.5046L4.53154 15.0426C4.58549 14.9867 4.64965 14.9424 4.72032 14.9122C4.79099 14.8819 4.86677 14.8664 4.94329 14.8665H19.423C19.936 14.8665 20.193 15.4974 19.8302 15.8665L17.4102 18.3284ZM17.4102 9.3547C17.3016 9.24466 17.1553 9.18309 17.003 9.18329H2.57702C2.06708 9.18329 1.80878 9.80774 2.16527 10.1786L4.53154 12.6406C4.58545 12.6965 4.64956 12.7408 4.72019 12.771C4.79081 12.8012 4.86654 12.8168 4.94302 12.8167H19.423C19.936 12.8167 20.193 12.1858 19.8302 11.8168L17.4102 9.3547Z" fill="url(#paint0_linear_199_5620)"/>
<path d="M27.6734 17.16C26.7988 17.16 26.0521 17 25.4334 16.68C24.8148 16.36 24.2654 15.896 23.7854 15.288L24.8094 14.264C25.1614 14.7547 25.5668 15.128 26.0254 15.384C26.4841 15.6293 27.0494 15.752 27.7214 15.752C28.3828 15.752 28.9108 15.608 29.3054 15.32C29.7108 15.032 29.9134 14.6373 29.9134 14.136C29.9134 13.72 29.8174 13.384 29.6254 13.128C29.4334 12.872 29.1721 12.664 28.8414 12.504C28.5214 12.3333 28.1694 12.184 27.7854 12.056C27.4014 11.9173 27.0174 11.7733 26.6334 11.624C26.2494 11.464 25.8974 11.272 25.5774 11.048C25.2574 10.8133 24.9961 10.5093 24.7934 10.136C24.6014 9.76267 24.5054 9.29333 24.5054 8.728C24.5054 8.09867 24.6548 7.56533 24.9534 7.128C25.2628 6.68 25.6788 6.33867 26.2014 6.104C26.7348 5.85867 27.3321 5.736 27.9934 5.736C28.7188 5.736 29.3694 5.88 29.9454 6.168C30.5214 6.44533 30.9908 6.81333 31.3534 7.272L30.3294 8.296C29.9988 7.912 29.6414 7.624 29.2574 7.432C28.8841 7.24 28.4521 7.144 27.9614 7.144C27.3641 7.144 26.8894 7.27733 26.5374 7.544C26.1854 7.8 26.0094 8.16267 26.0094 8.632C26.0094 9.00533 26.1054 9.30933 26.2974 9.544C26.5001 9.768 26.7614 9.96 27.0814 10.12C27.4014 10.28 27.7534 10.4293 28.1374 10.568C28.5321 10.696 28.9214 10.84 29.3054 11C29.6894 11.16 30.0414 11.3627 30.3614 11.608C30.6814 11.8533 30.9374 12.1733 31.1294 12.568C31.3321 12.952 31.4334 13.4373 31.4334 14.024C31.4334 15.0053 31.0921 15.7733 30.4094 16.328C29.7374 16.8827 28.8254 17.16 27.6734 17.16ZM38.5633 17.16C37.774 17.16 37.038 17.016 36.3553 16.728C35.6726 16.4293 35.0753 16.0187 34.5633 15.496C34.0513 14.9627 33.6513 14.3493 33.3633 13.656C33.086 12.9627 32.9473 12.2213 32.9473 11.432C32.9473 10.632 33.086 9.89067 33.3633 9.208C33.6513 8.51467 34.046 7.90667 34.5473 7.384C35.0593 6.86133 35.6513 6.456 36.3233 6.168C37.006 5.88 37.742 5.736 38.5313 5.736C39.3206 5.736 40.0513 5.88 40.7233 6.168C41.406 6.456 42.0033 6.86133 42.5153 7.384C43.0273 7.90667 43.4273 8.51467 43.7153 9.208C44.0033 9.90133 44.1473 10.648 44.1473 11.448C44.1473 12.2373 44.0033 12.9787 43.7153 13.672C43.4273 14.3653 43.0273 14.9733 42.5153 15.496C42.014 16.0187 41.422 16.4293 40.7393 16.728C40.0673 17.016 39.342 17.16 38.5633 17.16ZM38.5313 15.72C39.3313 15.72 40.03 15.5387 40.6273 15.176C41.2353 14.8027 41.7153 14.296 42.0673 13.656C42.4193 13.0053 42.5953 12.264 42.5953 11.432C42.5953 10.8133 42.494 10.248 42.2913 9.736C42.0886 9.21333 41.806 8.76 41.4433 8.376C41.0806 7.992 40.654 7.69867 40.1633 7.496C39.6726 7.28267 39.1286 7.176 38.5313 7.176C37.742 7.176 37.0433 7.35733 36.4353 7.72C35.838 8.08267 35.3633 8.584 35.0113 9.224C34.67 9.864 34.4993 10.6 34.4993 11.432C34.4993 12.0507 34.5953 12.6267 34.7873 13.16C34.99 13.6827 35.2673 14.136 35.6193 14.52C35.982 14.8933 36.4086 15.1867 36.8993 15.4C37.4006 15.6133 37.9446 15.72 38.5313 15.72ZM46.2104 17V5.896H47.7144V17H46.2104ZM47.2344 17V15.624H53.1864V17H47.2344Z" fill="white"/>
<defs>
<linearGradient id="paint0_linear_199_5620" x1="3.31429" y1="18.9066" x2="19.1132" y2="3.56852" gradientUnits="userSpaceOnUse">
<stop stop-color="#CF41E8"/>
<stop offset="1" stop-color="#10F2B0"/>
</linearGradient>
</defs>
</svg>
