<svg width="54" height="54" viewBox="0 0 54 54" fill="none" xmlns="http://www.w3.org/2000/svg">
<rect width="54" height="54" rx="6.96774" fill="white" fill-opacity="0.1"/>
<g clip-path="url(#clip0_174_2949)">
<path d="M35.1654 40.0646H18.8347C16.1336 40.0646 13.9355 37.8665 13.9355 35.1654V24.3448C13.9355 22.715 14.7423 21.1962 16.0944 20.285L24.2598 14.775C25.9222 13.6504 28.0757 13.6504 29.7403 14.775L37.9046 20.285C39.2567 21.1973 40.0635 22.715 40.0635 24.3448V35.1654C40.0635 37.8665 37.8664 40.0646 35.1654 40.0646ZM27 15.02C26.2575 15.02 25.5161 15.2388 24.8694 15.6764L16.703 21.1853C15.6513 21.8952 15.0242 23.0753 15.0242 24.3437V35.1644C15.0242 37.2656 16.7335 38.9748 18.8347 38.9748H35.1654C37.2666 38.9748 38.9758 37.2656 38.9758 35.1644V24.3448C38.9758 23.0764 38.3487 21.8962 37.2971 21.1864L29.1317 15.6764C28.4839 15.2399 27.7425 15.02 27 15.02Z" fill="white"/>
</g>
<defs>
<clipPath id="clip0_174_2949">
<rect width="26.129" height="26.129" fill="white" transform="translate(13.9355 13.9354)"/>
</clipPath>
</defs>
</svg>
