<svg width="132" height="40" viewBox="0 0 132 40" fill="none" xmlns="http://www.w3.org/2000/svg">
<path d="M5.71588 34.2841V0H0V37.3422H2.72449V40H28.5683V34.2841H5.71588Z" fill="white"/>
<path d="M40.0001 17.1365H57.1366V22.8524H40.0001V34.2841H62.8524V40H37.0865V37.3422H34.2842V2.64665H37.0309V0H62.8524V5.71587H40.0001V17.1365Z" fill="white"/>
<path d="M77.1422 31.4262V28.5682H80.0001V25.7103H82.8581V22.8524H85.716V19.9944H88.5739V17.1365H91.4319V14.2786H94.2898V11.4317H97.1477V0H68.5795V5.71587H91.4319V8.57381H88.5739V11.4317H85.716V14.2897H82.8581V17.1476H80.0001V19.9944H77.1422V22.8524H74.2842V25.7103H71.4263V28.5682H68.5684V40H97.1366V34.2841H74.2842V31.4262H77.1422Z" fill="white"/>
<path d="M128.562 5.71587V2.85794H125.704V0H108.568V2.85794H105.71V5.71587H102.852V34.2841H105.71V37.1421H108.568V40H125.704V37.1421H128.562V34.2841H131.42V5.71587H128.562ZM125.704 31.4262H122.846V34.2841H111.415V31.4262H108.557V8.57381H111.415V5.71587H122.846V8.57381H125.704V31.4262Z" fill="white"/>
</svg>
