<svg width="191" height="58" viewBox="0 0 191 58" fill="none" xmlns="http://www.w3.org/2000/svg">
<path d="M8.28802 49.712V0H0V54.1462H3.95051V58H41.424V49.712H8.28802Z" fill="#4C4C4C"/>
<path d="M57.9999 24.8479H82.8479V33.1359H57.9999V49.712H91.1359V58H53.7753V54.1462H49.7119V3.83764H53.6947V0H91.1359V8.28801H57.9999V24.8479Z" fill="#4C4C4C"/>
<path d="M111.856 45.568V41.424H116V37.28H120.144V33.1359H124.288V28.9919H128.432V24.8479H132.576V20.7039H136.72V16.576H140.864V0H99.4404V8.28801H132.576V12.432H128.432V16.576H124.288V20.72H120.144V24.8641H116V28.9919H111.856V33.1359H107.712V37.28H103.568V41.424H99.4243V58H140.848V49.712H107.712V45.568H111.856Z" fill="#4C4C4C"/>
<path d="M186.416 8.28801V4.14401H182.272V0H157.424V4.14401H153.28V8.28801H149.136V49.712H153.28V53.856H157.424V58H182.272V53.856H186.416V49.712H190.56V8.28801H186.416ZM182.272 45.568H178.128V49.712H161.552V45.568H157.408V12.432H161.552V8.28801H178.128V12.432H182.272V45.568Z" fill="#4C4C4C"/>
</svg>
