<svg width="18" height="18" viewBox="0 0 18 18" fill="none" xmlns="http://www.w3.org/2000/svg">
<path d="M0 9C0 4.02944 4.02944 0 9 0C13.9706 0 18 4.02944 18 9C18 13.9706 13.9706 18 9 18C4.02944 18 0 13.9706 0 9Z" fill="#61C454"/>
<path d="M9 0.5C13.6944 0.5 17.5 4.30558 17.5 9C17.5 13.6944 13.6944 17.5 9 17.5C4.30558 17.5 0.5 13.6944 0.5 9C0.5 4.30558 4.30558 0.5 9 0.5Z" stroke="black" stroke-opacity="0.1"/>
<path d="M6.49621 13C5.67022 13 5 12.3304 5 11.5043V6.58559L11.4139 13L6.49621 13ZM6.58674 5L11.5044 5C12.3303 5.0001 13 5.66971 13 6.4957V11.4138L6.58674 5Z" fill="black" fill-opacity="0.4" style="mix-blend-mode:multiply"/>
</svg>
