<svg width="18" height="18" viewBox="0 0 18 18" fill="none" xmlns="http://www.w3.org/2000/svg">
<path d="M0 9C0 4.02944 4.02944 0 9 0C13.9706 0 18 4.02944 18 9C18 13.9706 13.9706 18 9 18C4.02944 18 0 13.9706 0 9Z" fill="#F4BD50"/>
<path d="M9 0.5C13.6944 0.5 17.5 4.30558 17.5 9C17.5 13.6944 13.6944 17.5 9 17.5C4.30558 17.5 0.5 13.6944 0.5 9C0.5 4.30558 4.30558 0.5 9 0.5Z" stroke="black" stroke-opacity="0.1"/>
<path d="M12.6006 8L12.7178 8.00586C13.2955 8.06446 13.7461 8.55234 13.7461 9.14551C13.7461 9.73867 13.2955 10.2266 12.7178 10.2852L12.6006 10.291H5.14551C4.51285 10.291 4 9.77817 4 9.14551C4 8.51285 4.51285 8 5.14551 8H12.6006Z" fill="black" fill-opacity="0.25" style="mix-blend-mode:multiply"/>
<path d="M12.6006 8L12.7178 8.00586C13.2955 8.06446 13.7461 8.55234 13.7461 9.14551C13.7461 9.73867 13.2955 10.2266 12.7178 10.2852L12.6006 10.291H5.14551C4.51285 10.291 4 9.77817 4 9.14551C4 8.51285 4.51285 8 5.14551 8H12.6006Z" fill="black" fill-opacity="0.25" style="mix-blend-mode:multiply"/>
</svg>
