<svg width="18" height="18" viewBox="0 0 18 18" fill="none" xmlns="http://www.w3.org/2000/svg">
<rect width="18" height="18" rx="9" fill="#ED6A5E"/>
<rect x="0.5" y="0.5" width="17" height="17" rx="8.5" stroke="black" stroke-opacity="0.1"/>
<path d="M12.7727 11.6748C13.0758 11.9778 13.0758 12.4697 12.7727 12.7728C12.4698 13.0755 11.9785 13.0755 11.6755 12.7728L9.00075 10.0972L6.32519 12.7728L5.77659 12.2234L5.22724 11.6748L7.90279 8.99925L5.22724 6.32446C4.92451 6.0215 4.92451 5.53022 5.22724 5.22726C5.53025 4.92425 6.02218 4.92425 6.32519 5.22726L9.00075 7.90206L11.6755 5.22726L11.7346 5.17422C12.0394 4.92565 12.4887 4.94319 12.7727 5.22726C13.0568 5.51134 13.0743 5.96059 12.8258 6.26535L12.7727 6.32446L10.0979 8.99925L12.7727 11.6748ZM6.32519 12.7728C6.02217 13.0757 5.53024 13.0758 5.22724 12.7728C4.92424 12.4698 4.92427 11.9778 5.22724 11.6748L6.32519 12.7728Z" fill="black" fill-opacity="0.25" style="mix-blend-mode:multiply"/>
<path d="M12.7727 11.6748C13.0758 11.9778 13.0758 12.4697 12.7727 12.7728C12.4698 13.0755 11.9785 13.0755 11.6755 12.7728L9.00075 10.0972L6.32519 12.7728L5.77659 12.2234L5.22724 11.6748L7.90279 8.99925L5.22724 6.32446C4.92451 6.0215 4.92451 5.53022 5.22724 5.22726C5.53025 4.92425 6.02218 4.92425 6.32519 5.22726L9.00075 7.90206L11.6755 5.22726L11.7346 5.17422C12.0394 4.92565 12.4887 4.94319 12.7727 5.22726C13.0568 5.51134 13.0743 5.96059 12.8258 6.26535L12.7727 6.32446L10.0979 8.99925L12.7727 11.6748ZM6.32519 12.7728C6.02217 13.0757 5.53024 13.0758 5.22724 12.7728C4.92424 12.4698 4.92427 11.9778 5.22724 11.6748L6.32519 12.7728Z" fill="black" fill-opacity="0.25" style="mix-blend-mode:multiply"/>
</svg>
