<svg width="296" height="90" viewBox="0 0 296 90" fill="none" xmlns="http://www.w3.org/2000/svg">
<path d="M12.8607 77.1393V0H0V84.02H6.13011V90H64.2786V77.1393H12.8607Z" fill="white"/>
<path d="M89.9999 38.5571H128.557V51.4178H89.9999V77.1393H141.418V90H83.4444V84.02H77.1392V5.95496H83.3193V0H141.418V12.8607H89.9999V38.5571Z" fill="white"/>
<path d="M173.57 70.7089V64.2786H180V57.8482H186.431V51.4178H192.861V44.9875H199.291V38.5571H205.722V32.1268H212.152V25.7214H218.582V0H154.304V12.8607H205.722V19.2911H199.291V25.7214H192.861V32.1518H186.431V38.5822H180V44.9875H173.57V51.4178H167.14V57.8482H160.709V64.2786H154.279V90H218.557V77.1393H167.14V70.7089H173.57Z" fill="white"/>
<path d="M289.266 12.8607V6.43036H282.836V0H244.279V6.43036H237.848V12.8607H231.418V77.1393H237.848V83.5696H244.279V90H282.836V83.5696H289.266V77.1393H295.697V12.8607H289.266ZM282.836 70.7089H276.405V77.1393H250.684V70.7089H244.254V19.2911H250.684V12.8607H276.405V19.2911H282.836V70.7089Z" fill="white"/>
</svg>
