<svg width="20" height="20" viewBox="0 0 20 20" fill="none" xmlns="http://www.w3.org/2000/svg">
<path d="M12.1174 18.0716C12.1491 18.1505 12.2041 18.2179 12.2751 18.2646C12.3462 18.3113 12.4298 18.3352 12.5148 18.333C12.5998 18.3308 12.682 18.3027 12.7506 18.2524C12.8191 18.2021 12.8707 18.1321 12.8982 18.0516L18.3149 2.2183C18.3416 2.14446 18.3467 2.06455 18.3296 1.98793C18.3125 1.9113 18.2739 1.84113 18.2184 1.78561C18.1629 1.7301 18.0927 1.69154 18.0161 1.67446C17.9395 1.65737 17.8596 1.66246 17.7857 1.68913L1.9524 7.1058C1.87198 7.13338 1.80192 7.1849 1.75163 7.25344C1.70133 7.32199 1.67321 7.40428 1.67104 7.48926C1.66886 7.57425 1.69273 7.65787 1.73945 7.7289C1.78617 7.79993 1.8535 7.85497 1.9324 7.88663L8.54074 10.5366C8.74964 10.6203 8.93945 10.7453 9.09871 10.9043C9.25797 11.0633 9.38339 11.2529 9.4674 11.4616L12.1174 18.0716Z" stroke="white" stroke-width="1.33333" stroke-linecap="round" stroke-linejoin="round"/>
<path d="M18.2153 1.78918L9.09863 10.905" stroke="white" stroke-width="1.33333" stroke-linecap="round" stroke-linejoin="round"/>
</svg>
