<svg width="54" height="54" viewBox="0 0 54 54" fill="none" xmlns="http://www.w3.org/2000/svg">
<rect width="54" height="54" rx="6.96774" fill="white" fill-opacity="0.1"/>
<path d="M26.9838 30.7103L30.5134 34.7233C31.8198 36.2094 32.4741 36.953 33.1589 36.7712C33.8426 36.5904 34.0778 35.6128 34.547 33.6564L37.149 22.8041C37.873 19.7906 38.2345 18.2849 37.431 17.5413C36.6276 16.7977 35.2351 17.3508 32.4502 18.4558L19.5315 23.5869C17.304 24.472 16.1903 24.914 16.1195 25.6739C16.1112 25.7514 16.1112 25.8295 16.1195 25.9069C16.1881 26.6679 17.2997 27.1132 19.525 28.0049C20.5321 28.4088 21.0361 28.6113 21.3976 28.9978C21.4382 29.0413 21.4774 29.0863 21.5152 29.1328C21.8483 29.5465 21.9899 30.0908 22.274 31.1752L22.8064 33.2078C23.0818 34.2639 23.2201 34.793 23.5826 34.8648C23.9452 34.9367 24.2598 34.499 24.8902 33.6226L26.9838 30.7103ZM26.9838 30.7103L26.6386 30.351C26.2445 29.9395 26.0475 29.7348 26.0475 29.4801C26.0475 29.2253 26.2434 29.0195 26.6386 28.6091L30.5286 24.5547" stroke="white" stroke-width="1.30645" stroke-linecap="round" stroke-linejoin="round"/>
</svg>
