<svg width="20" height="20" viewBox="0 0 20 20" fill="none" xmlns="http://www.w3.org/2000/svg">
<path d="M5.00391 6.66675H8.33724" stroke="white" stroke-width="1.5" stroke-linecap="round" stroke-linejoin="round"/>
<path d="M17.3647 7.5H15.1964C13.7089 7.5 12.5039 8.61917 12.5039 10C12.5039 11.3808 13.7097 12.5 15.1956 12.5H17.3647C17.4347 12.5 17.4689 12.5 17.4981 12.4983C17.9481 12.4708 18.3064 12.1383 18.3356 11.7208C18.3372 11.6942 18.3372 11.6617 18.3372 11.5975V8.4025C18.3372 8.33833 18.3372 8.30583 18.3356 8.27917C18.3056 7.86167 17.9481 7.52917 17.4981 7.50167C17.4697 7.5 17.4347 7.5 17.3647 7.5Z" stroke="white"/>
<path d="M17.4751 7.50004C17.4101 5.94004 17.2017 4.98337 16.5276 4.31004C15.5517 3.33337 13.9801 3.33337 10.8376 3.33337H8.33756C5.19506 3.33337 3.6234 3.33337 2.64756 4.31004C1.67173 5.28671 1.6709 6.85754 1.6709 10C1.6709 13.1425 1.6709 14.7142 2.64756 15.69C3.62423 16.6659 5.19506 16.6667 8.33756 16.6667H10.8376C13.9801 16.6667 15.5517 16.6667 16.5276 15.69C17.2017 15.0167 17.4109 14.06 17.4751 12.5" stroke="white"/>
<path d="M14.9971 10H15.0071" stroke="white" stroke-width="2" stroke-linecap="round" stroke-linejoin="round"/>
</svg>
