<svg width="18" height="16" viewBox="0 0 18 16" fill="none" xmlns="http://www.w3.org/2000/svg">
<path d="M4 4.66675H7.33333" stroke="#4C4C4C" stroke-width="1.5" stroke-linecap="round" stroke-linejoin="round"/>
<path d="M16.3608 5.5H14.1925C12.705 5.5 11.5 6.61917 11.5 8C11.5 9.38083 12.7058 10.5 14.1917 10.5H16.3608C16.4308 10.5 16.465 10.5 16.4942 10.4983C16.9442 10.4708 17.3025 10.1383 17.3317 9.72083C17.3333 9.69417 17.3333 9.66167 17.3333 9.5975V6.4025C17.3333 6.33833 17.3333 6.30583 17.3317 6.27917C17.3017 5.86167 16.9442 5.52917 16.4942 5.50167C16.4658 5.5 16.4308 5.5 16.3608 5.5Z" stroke="#4C4C4C"/>
<path d="M16.4712 5.50004C16.4062 3.94004 16.1978 2.98337 15.5237 2.31004C14.5478 1.33337 12.9762 1.33337 9.83366 1.33337H7.33366C4.19116 1.33337 2.61949 1.33337 1.64366 2.31004C0.667825 3.28671 0.666992 4.85754 0.666992 8.00004C0.666992 11.1425 0.666992 12.7142 1.64366 13.69C2.62033 14.6659 4.19116 14.6667 7.33366 14.6667H9.83366C12.9762 14.6667 14.5478 14.6667 15.5237 13.69C16.1978 13.0167 16.407 12.06 16.4712 10.5" stroke="#4C4C4C"/>
<path d="M13.9932 8H14.0032" stroke="#4C4C4C" stroke-width="2" stroke-linecap="round" stroke-linejoin="round"/>
</svg>
